<svg xmlns="http://www.w3.org/2000/svg" xmlns:xlink="http://www.w3.org/1999/xlink"><symbol id="b" fill="none" viewBox="0 0 10 10"><g clip-path="url(#a)"><path stroke="currentColor" d="m1 9 8-8m0 0h-7.95m7.95 0v7.95"/></g><defs><clipPath id="a"><path fill="currentColor" d="M0 0h10v10h-10z"/></clipPath></defs></symbol><use xlink:href="#b" width="10" height="10"/><view viewBox="0 0 10 10"/><symbol id="c" fill="none" viewBox="0 0 10 8"><path stroke="currentColor" stroke-linecap="round" stroke-linejoin="round" d="m1 3.5 2.95 3.5 5.05-6"/></symbol><use xlink:href="#c" width="10" height="8" y="10"/><view viewBox="0 10 10 8"/><symbol id="d" fill="none" viewBox="0 0 12 7"><path stroke="currentColor" d="m11.46.82-5.46 4.9-5.45-4.9"/></symbol><use xlink:href="#d" width="12" height="7" y="18"/><view viewBox="0 18 12 7"/><symbol id="e" fill="none" viewBox="0 0 18 18"><path stroke="currentColor" stroke-linecap="round" stroke-linejoin="round" d="m1 17 8-8m0 0 8-8m-8 8 8 8m-8-8-8-8"/></symbol><use xlink:href="#e" width="18" height="18" y="25"/><view viewBox="0 25 18 18"/><symbol id="f" fill="none" viewBox="0 0 30 30"><path fill="#316DC2" d="M.92 8.8c-.85.6-1.35 1.9-.41 3.43.94 1.54 14.38 11.9 14.88 12.2s.98.33 2.24-.68 11.74-8.88 12-9.12c.44-.38.54-1.3 0-1.73 0 0-12.7 9.5-13.11 9.89s-1.06-.24-.94-1.06.2-.9 1.82-2.16a2566 2566 0 0 1 11.18-8.48c.47-.35.48-.96-.3-1.5a5195 5195 0 0 1-13.01-9.27c-.4-.3-.93-.55-1.73.02-.81.58-11.06 7.35-12.62 8.46"/><path fill="#316DC2" d="M15.39 25.43c-.33-.19-6.23-4.71-10.51-8.24v7.35c0 5.37 15.12 8.24 20.13 1.64v-7.03a777.64 777.64 0 0 0-7.38 5.61c-1.26 1-1.75.96-2.24.67"/><path fill="#98B8E6" d="M21.79 17.37s2.24 1.13 2.4 5.68l-1.09-.3-.87 1.85c-.37-4.98-2.37-5.7-2.37-5.7z"/></symbol><use xlink:href="#f" width="30" height="30" y="43"/><view viewBox="0 43 30 30"/><symbol id="g" fill="none" viewBox="0 0 10 16"><path fill="currentColor" d="M5 2.42c.96 0 1.74.77 1.74 1.71s-.78 1.7-1.74 1.7-1.74-.76-1.74-1.7.78-1.71 1.74-1.71m0 5.84a4.18 4.18 0 0 0 4.21-4.13c0-2.28-1.89-4.13-4.21-4.13s-4.21 1.85-4.21 4.13a4.17 4.17 0 0 0 4.2 4.13m1.71 3.37a8 8 0 0 0 2.45-1c.57-.35.75-1.1.39-1.66a1.25 1.25 0 0 0-1.7-.38 5.44 5.44 0 0 1-5.68 0 1.24 1.24 0 0 0-1.7.38 1.2 1.2 0 0 0 .39 1.66 8 8 0 0 0 2.44 1l-2.35 2.3a1.2 1.2 0 0 0 0 1.71 1.25 1.25 0 0 0 1.75 0l2.31-2.26 2.32 2.26c.48.48 1.25.48 1.74 0a1.2 1.2 0 0 0 0-1.7z"/></symbol><use xlink:href="#g" width="10" height="16" y="73"/><view viewBox="0 73 10 16"/><symbol id="h" fill="none" viewBox="0 0 20 10"><path stroke="currentColor" stroke-linecap="round" d="M1 1h18m-18 4h18m-18 4h18"/></symbol><use xlink:href="#h" width="20" height="10" y="89"/><view viewBox="0 89 20 10"/><symbol id="i" fill="none" viewBox="0 0 16 16"><path fill="currentColor" d="M9.41.36c-.46 0-.9.25-1.18.61-.28.36-.44.8-.55 1.26-.18.74-.23 1.56-.25 2.3-1.3.09-2.5.5-3.48 1.13-.4-.36-.88-.55-1.34-.55-.53 0-1.03.25-1.4.73-.71.94-.63 2.47.2 3.37a5 5 0 0 0-.1.86c0 3.08 3 5.57 6.69 5.57s6.68-2.5 6.68-5.57c0-.29-.03-.58-.08-.86.82-.9.9-2.43.2-3.37a1.74 1.74 0 0 0-1.4-.73c-.47 0-.95.2-1.35.55a7.4 7.4 0 0 0-3.47-1.13c.02-.69.07-1.4.2-1.93.08-.33.18-.58.28-.7.1-.14.18-.2.35-.2.38 0 .43.13.66.44.11.16.25.35.46.55.21.19.53.35.87.35v-1.34c-.1 0-.12 0-.18-.06s-.15-.2-.28-.38c-.26-.35-.77-.9-1.52-.9m3.67.13c-.88 0-1.59.84-1.59 1.88s.71 1.88 1.6 1.88c.87 0 1.59-.84 1.59-1.88s-.72-1.88-1.6-1.88m0 .67c.57 0 1.03.54 1.03 1.21s-.46 1.21-1.03 1.21-1.02-.54-1.02-1.2c0-.68.46-1.22 1.02-1.22m-5.09 4.41c3.13 0 5.78 2.07 5.78 4.5 0 2.44-2.65 4.5-5.78 4.5-3.13 0-5.78-2.06-5.78-4.5 0-2.43 2.65-4.5 5.78-4.5m-5.38.61c.16 0 .32.04.48.13a5.45 5.45 0 0 0-1.33 1.75c-.2-.51-.15-1.16.11-1.5a.9.9 0 0 1 .74-.38m10.76 0a.9.9 0 0 1 .74.38c.26.34.32.99.1 1.5a5.45 5.45 0 0 0-1.32-1.76c.16-.08.32-.12.48-.12m-7.64 1.67c-.57 0-1.03.55-1.03 1.22s.46 1.21 1.03 1.21 1.02-.54 1.02-1.21c0-.67-.46-1.22-1.02-1.22m4.53 0c-.57 0-1.03.55-1.03 1.22s.46 1.21 1.03 1.21 1.02-.54 1.02-1.21c0-.67-.46-1.22-1.02-1.22m-5.08 4.13a3.1 3.1 0 0 0 2.81 1.73c1.34 0 2.47-.85 2.83-1.74-.65.5-1.68.84-2.83.84s-2.15-.34-2.81-.84"/></symbol><use xlink:href="#i" width="16" height="16" y="99"/><view viewBox="0 99 16 16"/><symbol id="j" fill="none" viewBox="0 0 18 22"><path fill="#fff" d="m9 0 3.01 5.48 5.99.02-2.97 5.5 2.97 5.5-5.99.03-3.01 5.47-3.01-5.47-5.99-.03 2.97-5.5-2.97-5.5 5.99-.02z"/></symbol><use xlink:href="#j" width="18" height="22" y="115"/><view viewBox="0 115 18 22"/><symbol id="k" fill="none" viewBox="0 0 16 10"><path fill="currentColor" d="M15.86 8.42c-.05-.07-.31-.62-1.6-1.76-1.33-1.19-1.15-1 .46-3.05.98-1.25 1.38-2.02 1.25-2.34-.11-.31-.84-.23-.84-.23l-2.4.01s-.18-.02-.3.05c-.14.08-.22.25-.22.25s-.38.97-.9 1.8c-1.06 1.73-1.5 1.82-1.67 1.72-.4-.25-.3-1.01-.3-1.55 0-1.69.27-2.4-.52-2.57-.26-.06-.46-.1-1.13-.11-.85-.01-1.58 0-2 .2-.27.12-.48.4-.35.42.16.02.52.1.71.35.25.31.24 1.04.24 1.04s.14 1.98-.33 2.23c-.32.17-.77-.18-1.72-1.76-.5-.8-.87-1.7-.87-1.7s-.07-.17-.2-.26c-.15-.1-.36-.14-.36-.14l-2.29.02s-.34 0-.47.15c-.11.12 0 .39 0 .39s1.78 4 3.81 6.02c1.86 1.85 3.97 1.73 3.97 1.73h.95s.3-.03.44-.19c.14-.14.13-.4.13-.4s-.02-1.22.58-1.4c.59-.18 1.34 1.18 2.14 1.7.6.4 1.06.32 1.06.32l2.14-.03s1.12-.07.59-.9"/></symbol><use xlink:href="#k" width="16" height="10" y="137"/><view viewBox="0 137 16 10"/></svg>
